<svg id="Layer_1_1_" enable-background="new 0 0 64 64" height="512" viewBox="0 0 64 64" width="512" xmlns="http://www.w3.org/2000/svg"><path d="m56 56h-45c-1.105 0-2-.895-2-2v-27h47z" fill="#2b67b3"/><path d="m50 14h-.61c-1.443-4.075-5.32-7-9.89-7-4.234 0-7.873 2.511-9.534 6.121-1.904-1.926-4.544-3.121-7.466-3.121-5.799 0-10.5 4.701-10.5 10.5v3.5h-3c-3.314 0-6 2.686-6 6s2.686 6 6 6h41c6.075 0 11-4.925 11-11s-4.925-11-11-11z" fill="#a8d5fe"/><path d="m50 14h-.61c-1.443-4.075-5.32-7-9.89-7-1.615 0-3.142.367-4.507 1.02 4.353.202 8.006 3.053 9.397 6.98h.61c6.075 0 11 4.925 11 11 0 4.445-2.642 8.265-6.437 10h.437c6.075 0 11-4.925 11-11s-4.925-11-11-11z" fill="#cbe6fe"/><g fill="#5aa2ff"><path d="m44 31h6v25h-6z"/><path d="m34 37h6v19h-6z"/><path d="m24 42h6v14h-6z"/><path d="m14 47h6v9h-6z"/></g><path d="m23.724 28.358-5.724-.358v8l8.458-.403c7.393-.352 13.622-5.638 15.173-12.875l.369-1.722 3 2-2-8-7 5h3c-3.055 5.498-8.998 8.75-15.276 8.358z" fill="#ffd45a"/><path d="m43 15-1.369 4.723c-1.551 7.237-7.78 12.523-15.173 12.875l-8.458.402v3l8.458-.403c7.393-.352 13.622-5.638 15.173-12.875l.369-1.722 3 2-.9-3.6z" fill="#febe07"/><path d="m50.073 13c-1.794-4.215-5.956-7-10.573-7-4.022 0-7.743 2.13-9.814 5.523-2.033-1.636-4.54-2.523-7.186-2.523-6.341 0-11.5 5.159-11.5 11.5v2.5h-2c-3.86 0-7 3.14-7 7 0 3.519 2.613 6.432 6 6.92v17.08c0 1.654 1.346 3 3 3h45v-2h-5v-18.051c6.149-.511 11-5.67 11-11.949 0-6.593-5.343-11.96-11.927-12zm-31.073 42h-4v-7h4zm10 0h-4v-12h4zm10 0h-4v-17h4zm6 0v-23h4v23zm6-20.051v-3.949c0-.552-.448-1-1-1h-6c-.552 0-1 .448-1 1v24h-2v-18c0-.552-.448-1-1-1h-6c-.552 0-1 .448-1 1v18h-2v-13c0-.552-.448-1-1-1h-6c-.552 0-1 .448-1 1v13h-2v-8c0-.552-.448-1-1-1h-6c-.552 0-1 .448-1 1v8h-2c-.551 0-1-.449-1-1v-17h5v-2h-6c-2.757 0-5-2.243-5-5s2.243-5 5-5h3c.552 0 1-.448 1-1v-3.5c0-5.238 4.262-9.5 9.5-9.5 2.556 0 4.955 1.003 6.755 2.824.23.233.563.34.884.282.323-.057.598-.269.735-.567 1.549-3.365 4.935-5.539 8.626-5.539 4.01 0 7.605 2.545 8.947 6.334.141.399.519.666.943.666h.61c5.514 0 10 4.486 10 10 0 5.177-3.954 9.446-9 9.949z"/><path d="m50 18v2c2.206 0 4 1.794 4 4h2c0-3.309-2.691-6-6-6z"/><path d="m54 26h2v2h-2z"/><path d="m43.97 14.757c-.081-.321-.314-.582-.625-.696s-.658-.067-.927.125l-7 5c-.354.253-.504.705-.371 1.119s.518.695.953.695h1.183c-3.044 4.232-8.132 6.685-13.396 6.36l-5.725-.358c-.281-.022-.546.08-.747.269s-.315.453-.315.729v8c0 .273.112.535.31.724.186.177.434.276.69.276.016 0 .032 0 .047-.001l8.458-.403c7.837-.374 14.459-5.992 16.104-13.664l.061-.284 1.776 1.184c.343.229.792.224 1.131-.015.337-.238.494-.659.394-1.06zm-1.415 5.411c-.276-.185-.624-.22-.931-.094-.307.125-.532.393-.602.717l-.369 1.723c-1.454 6.786-7.311 11.755-14.242 12.085l-7.411.352v-5.887l4.662.292c6.625.423 12.989-3.068 16.212-8.87.172-.31.167-.688-.012-.993-.161-.273-.439-.452-.75-.486l3.274-2.339 1.016 4.066z"/></svg>