<svg id="Layer_1_1_" enable-background="new 0 0 64 64" height="512" viewBox="0 0 64 64" width="512" xmlns="http://www.w3.org/2000/svg"><path d="m11 27h42v28h-42z" fill="#fffcf5"/><path d="m8 23c-.552 0-1 .448-1 1v31h4v-28h42v28h4v-31c0-.552-.448-1-1-1h-2.207-26.862z" fill="#2b67b3"/><path d="m17 40h4v10h-4z" fill="#876400"/><path d="m53.793 8.586h-.4c-.945-2.67-3.485-4.586-6.479-4.586-2.774 0-5.158 1.645-6.247 4.01-1.247-1.262-2.977-2.045-4.891-2.045-3.799 0-6.879 3.08-6.879 6.879v2.293h-1.966c-2.171 0-3.931 1.76-3.931 3.931 0 2.172 1.76 3.932 3.931 3.932h26.862c3.98 0 7.207-3.227 7.207-7.207s-3.227-7.207-7.207-7.207z" fill="#a8d5fe"/><path d="m43 40h4v10h-4z" fill="#876400"/><path d="m11 55h-4-2.613c-.683 0-1.165.669-.949 1.316.933 2.797 3.551 4.684 6.499 4.684h44.126c2.948 0 5.566-1.887 6.498-4.684.216-.647-.266-1.316-.948-1.316h-2.613-4z" fill="#2b67b3"/><path d="m34.776 8.966c1.914 0 3.644.783 4.891 2.045 1.089-2.366 3.473-4.011 6.247-4.011 2.994 0 5.534 1.916 6.479 4.586h.4c3.98 0 7.207 3.227 7.207 7.207 0 .239-.013.475-.036.708.653-1.084 1.036-2.35 1.036-3.708 0-3.98-3.227-7.207-7.207-7.207h-.4c-.945-2.67-3.485-4.586-6.479-4.586-2.774 0-5.158 1.645-6.247 4.01-1.247-1.262-2.977-2.045-4.891-2.045-3.594 0-6.54 2.757-6.849 6.27 1.213-1.959 3.375-3.269 5.849-3.269z" fill="#cbe6fe"/><path d="m49 36-17-5-17 5v4h34z" fill="#b18300"/><path d="m32 36c-2.959 0-5.537 1.611-6.921 4-.682 1.178-1.079 2.541-1.079 4 0 4.418 3.582 8 8 8s8-3.582 8-8-3.582-8-8-8z" fill="#febe07"/><path d="m32 36c-1.684 0-3.234.535-4.521 1.424.794-.265 1.637-.424 2.521-.424 4.418 0 8 3.582 8 8 0 2.729-1.369 5.135-3.454 6.579 3.168-1.064 5.454-4.052 5.454-7.579 0-4.418-3.582-8-8-8z" fill="#ffd45a"/><path d="m60.19 55.191c-1.143 2.306-3.5 3.809-6.127 3.809h-44.126c-2.627 0-4.984-1.503-6.127-3.809-.339.244-.517.687-.371 1.125.932 2.797 3.55 4.684 6.498 4.684h44.126c2.948 0 5.566-1.887 6.498-4.684.146-.438-.031-.881-.371-1.125z" fill="#004eb1"/><path d="m23.123 20c.327 1.338 1.336 2.395 2.64 2.804h29.677c1.718-.402 3.196-1.417 4.196-2.804z" fill="#8eb4d6"/><path d="m32 41c.552 0 1 .449 1 1h2c0-1.302-.839-2.402-2-2.816v-1.184h-2v1.184c-1.161.414-2 1.514-2 2.816 0 1.654 1.346 3 3 3 .552 0 1 .449 1 1s-.448 1-1 1-1-.449-1-1h-2c0 1.302.839 2.402 2 2.816v1.184h2v-1.184c1.161-.414 2-1.514 2-2.816 0-1.654-1.346-3-3-3-.552 0-1-.449-1-1s.448-1 1-1z"/><path d="m24 49h-2v-8h1.525c-.334.94-.525 1.947-.525 3 0 4.962 4.037 9 9 9s9-4.038 9-9c0-1.053-.191-2.06-.525-3h1.525v8h-2v2h10v-2h-2v-8h1c.553 0 1-.448 1-1v-4c0-.444-.292-.834-.718-.959l-17-5c-.184-.054-.381-.054-.564 0l-17 5c-.426.125-.718.515-.718.959v4c0 .552.447 1 1 1h1v8h-2v2h10zm8 2c-3.859 0-7-3.14-7-7s3.141-7 7-7 7 3.14 7 7-3.141 7-7 7zm14-2h-2v-8h2zm-30-12.252 16-4.706 16 4.706v2.252h-8.522c-1.617-2.41-4.365-4-7.478-4s-5.862 1.59-7.478 4h-8.522zm2 4.252h2v8h-2z"/><path d="m54.067 7.591c-1.274-2.773-4.065-4.591-7.153-4.591-2.626 0-5.065 1.326-6.518 3.462-1.336-.973-2.938-1.497-4.621-1.497-4.345 0-7.879 3.535-7.879 7.879v1.156h-11.896v2h7.102c-.464.578-.812 1.252-.978 2h-9.124v2h9.094c.143.742.459 1.416.894 2h-14.988c-1.103 0-2 .897-2 2v30h-1.612c-.642 0-1.248.311-1.623.831s-.478 1.194-.274 1.802c1.07 3.21 4.063 5.367 7.447 5.367h44.125c3.384 0 6.377-2.157 7.448-5.368.202-.608.1-1.282-.275-1.802s-.982-.83-1.624-.83h-1.612v-30c0-.367-.107-.707-.28-1.003 2.548-1.394 4.28-4.1 4.28-7.204 0-4.433-3.533-8.057-7.933-8.202zm5.546 48.409c-.798 2.393-3.028 4-5.551 4h-44.124c-2.522 0-4.753-1.607-5.55-4zm-7.613-2h-40v-26h40zm4-30v30h-2v-27c0-.552-.447-1-1-1h-42c-.553 0-1 .448-1 1v27h-2v-30zm-2.207-2h-26.862c-1.617 0-2.931-1.315-2.931-2.931s1.314-2.931 2.931-2.931h1.966c.553 0 1-.448 1-1v-2.293c0-3.242 2.638-5.879 5.879-5.879 1.582 0 3.066.621 4.181 1.748.23.233.561.34.884.282.323-.057.599-.269.735-.566.958-2.084 3.054-3.43 5.338-3.43 2.481 0 4.707 1.575 5.537 3.92.141.399.519.667.942.667h.399c3.423 0 6.207 2.784 6.207 6.207s-2.783 6.206-6.206 6.206z"/><path d="m54 18v2c1.136 0 2.223-.486 2.981-1.333l-1.49-1.334c-.38.424-.923.667-1.491.667z"/><path d="m54 12v2c1.103 0 2 .897 2 2h2c0-2.206-1.794-4-4-4z"/><path d="m9 18h2v2h-2z"/><path d="m12 14h2v2h-2z"/></svg>