<svg height="512" viewBox="0 0 64 64" width="512" xmlns="http://www.w3.org/2000/svg"><g id="Currency-Exchange-Online-Smartphone-Payment"><path d="m49 7v50a4 4 0 0 1 -4 4h-26a4.01 4.01 0 0 1 -4-4v-50a4 4 0 0 1 4-4h26a4 4 0 0 1 4 4z" fill="#5aaae7"/><path d="m49 23.45v33.55a4 4 0 0 1 -4 4h-26a3.98 3.98 0 0 1 -3.46-2c10.63-5.29 27.16-16.3 33.46-35.55z" fill="#3d9ae2"/><path d="m52 11a8.8 8.8 0 0 0 -3 .52 8.992 8.992 0 0 0 -4.09 14.02l-.91 5.46 4.71-2.63a2.469 2.469 0 0 0 .29.1 8.805 8.805 0 0 0 3 .53 9 9 0 0 0 0-18z" fill="#00ccb3"/><path d="m40 39.47v3.53h-16v-3.53a4.02 4.02 0 0 1 2.21-3.58l1.5-.75 2.29 2.86 2-2 2 2 2.29-2.86 1.5.75a4.02 4.02 0 0 1 2.21 3.58z" fill="#ff5023"/><path d="m36.29 35.14-2.29 2.86-2-2 2-2z" fill="#ed1c24"/><path d="m34 53a2.006 2.006 0 0 1 2 2 2.015 2.015 0 0 1 -2 2h-4a2.006 2.006 0 0 1 -2-2 2.015 2.015 0 0 1 2-2z" fill="#e6e7e8"/><path d="m32 36-2 2-2.29-2.86 2.29-1.14z" fill="#ed1c24"/><path d="m21 20a8.981 8.981 0 0 0 -6-8.48 8.8 8.8 0 0 0 -3-.52 9 9 0 0 0 0 18 8.805 8.805 0 0 0 3-.53 2.469 2.469 0 0 0 .29-.1l4.71 2.63-.91-5.46a9 9 0 0 0 1.91-5.54z" fill="#ffd422"/><path d="m34 31v3l-2 2-2-2v-3z" fill="#ffc477"/><path d="m34 31v1.46a3.974 3.974 0 0 1 -4 0v-1.46z" fill="#ffb655"/><path d="m37 23v1l-1 2-3-2-.83.83a4 4 0 0 1 -2.83 1.17h-1.34l-1-1 1-2-2-2h9a2.006 2.006 0 0 1 2 2z" fill="#57565c"/><path d="m36 26v2a4 4 0 0 1 -8 0v-2h1.34a4 4 0 0 0 2.83-1.17l.83-.83z" fill="#ffc477"/><path d="m23 6h2v2h-2z"/><path d="m19 6h2v2h-2z"/><path d="m27 6h10v2h-10z"/><path d="m34 52h-4a3 3 0 0 0 0 6h4a3 3 0 0 0 0-6zm0 4h-4a1 1 0 0 1 0-2h4a1 1 0 0 1 0 2z"/><path d="m51 17h2a1 1 0 0 1 1 1h2a3 3 0 0 0 -3-3v-1h-2v1a3 3 0 0 0 0 6h2a1 1 0 0 1 0 2h-2a1 1 0 0 1 -1-1h-2a3 3 0 0 0 3 3v1h2v-1a3 3 0 0 0 0-6h-2a1 1 0 0 1 0-2z"/><path d="m16 22a3 3 0 0 0 -3-3h-2a1 1 0 0 1 0-2h2a1 1 0 0 1 1 1h2a3 3 0 0 0 -3-3v-1h-2v1a3 3 0 0 0 0 6h2a1 1 0 0 1 0 2h-2a1 1 0 0 1 -1-1h-2a3 3 0 0 0 3 3v1h2v-1a3 3 0 0 0 3-3z"/><path d="m52 10a9.983 9.983 0 0 0 -2 .2v-3.2a5.006 5.006 0 0 0 -5-5h-26a5.006 5.006 0 0 0 -5 5v3.2a10 10 0 1 0 -2 19.8 9.873 9.873 0 0 0 2-.213v27.213a5.006 5.006 0 0 0 5 5h26a5.006 5.006 0 0 0 5-5v-27.213a9.873 9.873 0 0 0 2 .213 10 10 0 0 0 0-20zm-48 10a8 8 0 0 1 16 0 7.915 7.915 0 0 1 -1.7 4.919 1 1 0 0 0 -.2.781l.57 3.411-2.889-1.611a1 1 0 0 0 -.488-.127 1.028 1.028 0 0 0 -.366.069 7.923 7.923 0 0 1 -2.927.558 8.009 8.009 0 0 1 -8-8zm41 40h-26a3 3 0 0 1 -3-3v-27.091l3.512 1.964a1 1 0 0 0 1.474-1.038l-.843-5.043a9.885 9.885 0 0 0 1.857-5.792 10.011 10.011 0 0 0 -6-9.159v-3.841a3 3 0 0 1 3-3h26a3 3 0 0 1 3 3v3.841a10.011 10.011 0 0 0 -6 9.159 9.885 9.885 0 0 0 1.857 5.792l-.843 5.043a1 1 0 0 0 1.474 1.038l3.512-1.964v27.091a3 3 0 0 1 -3 3zm7-32a7.923 7.923 0 0 1 -2.927-.562 1.01 1.01 0 0 0 -.854.058l-2.889 1.615.57-3.411a1 1 0 0 0 -.2-.781 7.915 7.915 0 0 1 -1.7-4.919 8 8 0 1 1 8 8z"/><path d="m38.236 35-3.236-1.618v-1.408a4.977 4.977 0 0 0 2-3.974v-1.764l.9-1.789a1 1 0 0 0 .1-.447v-1a3 3 0 0 0 -3-3h-9a1 1 0 0 0 -.707 1.707l1.49 1.49-.678 1.356a1 1 0 0 0 .188 1.154l.707.707v1.586a4.977 4.977 0 0 0 2 3.974v1.408l-3.236 1.618a4.973 4.973 0 0 0 -2.764 4.472v3.528a1 1 0 0 0 1 1h16a1 1 0 0 0 1-1v-3.528a4.973 4.973 0 0 0 -2.764-4.472zm-8.433.217.783.783-.5.5-.816-1.018zm4.394 0 .536.268-.816 1.015-.5-.5zm-2.197-4.217a3 3 0 0 1 -3-3v-1h.343a4.968 4.968 0 0 0 3.535-1.465l.249-.248 1.873 1.248v1.465a3 3 0 0 1 -3 3zm-3.293-8.707-.293-.293h6.586a1 1 0 0 1 1 1v.764l-.388.776-2.057-1.372a1 1 0 0 0 -1.262.125l-.829.828a3.017 3.017 0 0 1 -2.121.879h-.929l-.2-.2.678-1.356a1 1 0 0 0 -.185-1.151zm3.293 10.707a5 5 0 0 0 1-.1v.687l-1 1-1-1v-.687a5 5 0 0 0 1 .1zm7 9h-14v-2.528a2.983 2.983 0 0 1 1.658-2.683l.779-.39 1.782 2.226a1 1 0 0 0 .726.373l.055.002a1 1 0 0 0 .707-.293l1.293-1.293 1.293 1.293a1 1 0 0 0 .707.293h.055a1 1 0 0 0 .726-.373l1.782-2.227.779.39a2.983 2.983 0 0 1 1.658 2.682z"/></g></svg>